<mxfile host="app.diagrams.net" modified="2024-04-28T15:42:40.922Z" agent="Mozilla/5.0 (Macintosh; Intel Mac OS X 10_15_7) AppleWebKit/537.36 (KHTML, like Gecko) Chrome/123.0.0.0 Safari/537.36" etag="81kQTnxuRtL4sH7gLEgz" version="24.3.1" type="device">
  <diagram name="PÃ¡gina-1" id="ocW3EVRU7pYT-JljNWlS">
    <mxGraphModel dx="2045" dy="1010" grid="1" gridSize="10" guides="1" tooltips="1" connect="1" arrows="1" fold="1" page="1" pageScale="1" pageWidth="827" pageHeight="1169" math="0" shadow="0">
      <root>
        <mxCell id="0" />
        <mxCell id="1" parent="0" />
        <mxCell id="4cLJu39u_k5lHtrwkPme-19" style="edgeStyle=orthogonalEdgeStyle;rounded=0;orthogonalLoop=1;jettySize=auto;html=1;exitX=0;exitY=0.25;exitDx=0;exitDy=0;entryX=0.25;entryY=0;entryDx=0;entryDy=0;" edge="1" parent="1" source="4cLJu39u_k5lHtrwkPme-1" target="4cLJu39u_k5lHtrwkPme-2">
          <mxGeometry relative="1" as="geometry" />
        </mxCell>
        <mxCell id="4cLJu39u_k5lHtrwkPme-1" value="&lt;div style=&quot;text-align: justify;&quot;&gt;&lt;span style=&quot;background-color: initial;&quot;&gt;Main Menu:&lt;/span&gt;&lt;/div&gt;&lt;div&gt;&lt;div style=&quot;text-align: justify;&quot;&gt;1- Sign in&lt;/div&gt;&lt;div style=&quot;text-align: justify;&quot;&gt;2-Sign Out&lt;/div&gt;&lt;div style=&quot;text-align: justify;&quot;&gt;&lt;br&gt;&lt;/div&gt;&lt;div style=&quot;text-align: justify;&quot;&gt;0- Exit&lt;/div&gt;&lt;/div&gt;" style="rounded=1;whiteSpace=wrap;html=1;align=center;" vertex="1" parent="1">
          <mxGeometry x="500" y="150" width="170" height="90" as="geometry" />
        </mxCell>
        <mxCell id="4cLJu39u_k5lHtrwkPme-3" style="edgeStyle=orthogonalEdgeStyle;rounded=0;orthogonalLoop=1;jettySize=auto;html=1;exitX=0.75;exitY=0;exitDx=0;exitDy=0;entryX=0;entryY=0.75;entryDx=0;entryDy=0;" edge="1" parent="1" source="4cLJu39u_k5lHtrwkPme-2" target="4cLJu39u_k5lHtrwkPme-1">
          <mxGeometry relative="1" as="geometry" />
        </mxCell>
        <mxCell id="4cLJu39u_k5lHtrwkPme-4" value="0" style="edgeLabel;html=1;align=center;verticalAlign=middle;resizable=0;points=[];" vertex="1" connectable="0" parent="4cLJu39u_k5lHtrwkPme-3">
          <mxGeometry x="0.3662" y="3" relative="1" as="geometry">
            <mxPoint x="-5" y="16" as="offset" />
          </mxGeometry>
        </mxCell>
        <mxCell id="4cLJu39u_k5lHtrwkPme-10" style="edgeStyle=orthogonalEdgeStyle;rounded=0;orthogonalLoop=1;jettySize=auto;html=1;exitX=1;exitY=0.25;exitDx=0;exitDy=0;entryX=0;entryY=0.25;entryDx=0;entryDy=0;" edge="1" parent="1" source="4cLJu39u_k5lHtrwkPme-2" target="4cLJu39u_k5lHtrwkPme-9">
          <mxGeometry relative="1" as="geometry" />
        </mxCell>
        <mxCell id="4cLJu39u_k5lHtrwkPme-15" style="edgeStyle=orthogonalEdgeStyle;rounded=0;orthogonalLoop=1;jettySize=auto;html=1;exitX=0.75;exitY=1;exitDx=0;exitDy=0;entryX=0.75;entryY=0;entryDx=0;entryDy=0;" edge="1" parent="1" source="4cLJu39u_k5lHtrwkPme-2" target="4cLJu39u_k5lHtrwkPme-14">
          <mxGeometry relative="1" as="geometry" />
        </mxCell>
        <mxCell id="4cLJu39u_k5lHtrwkPme-2" value="&lt;div style=&quot;text-align: justify;&quot;&gt;&lt;span style=&quot;background-color: initial;&quot;&gt;Employee Menu:&lt;/span&gt;&lt;/div&gt;&lt;div&gt;&lt;div style=&quot;text-align: justify;&quot;&gt;1- Manage products&lt;/div&gt;&lt;div style=&quot;text-align: justify;&quot;&gt;2- Manage clients&amp;nbsp;&lt;/div&gt;&lt;div style=&quot;text-align: justify;&quot;&gt;&lt;span style=&quot;background-color: initial;&quot;&gt;&lt;br&gt;&lt;/span&gt;&lt;/div&gt;&lt;div style=&quot;text-align: justify;&quot;&gt;&lt;span style=&quot;background-color: initial;&quot;&gt;&lt;br&gt;&lt;/span&gt;&lt;/div&gt;&lt;div style=&quot;text-align: justify;&quot;&gt;&lt;span style=&quot;background-color: initial;&quot;&gt;0- Log Out&lt;/span&gt;&lt;br&gt;&lt;/div&gt;&lt;/div&gt;" style="rounded=1;whiteSpace=wrap;html=1;" vertex="1" parent="1">
          <mxGeometry x="280" y="320" width="200" height="130" as="geometry" />
        </mxCell>
        <mxCell id="4cLJu39u_k5lHtrwkPme-5" style="edgeStyle=orthogonalEdgeStyle;rounded=0;orthogonalLoop=1;jettySize=auto;html=1;exitX=0;exitY=0.5;exitDx=0;exitDy=0;entryX=0.568;entryY=-0.015;entryDx=0;entryDy=0;entryPerimeter=0;" edge="1" parent="1" source="4cLJu39u_k5lHtrwkPme-1" target="4cLJu39u_k5lHtrwkPme-2">
          <mxGeometry relative="1" as="geometry" />
        </mxCell>
        <mxCell id="4cLJu39u_k5lHtrwkPme-6" value="1" style="text;html=1;align=center;verticalAlign=middle;resizable=0;points=[];autosize=1;strokeColor=none;fillColor=none;" vertex="1" parent="1">
          <mxGeometry x="384" y="190" width="30" height="30" as="geometry" />
        </mxCell>
        <mxCell id="4cLJu39u_k5lHtrwkPme-12" style="edgeStyle=orthogonalEdgeStyle;rounded=0;orthogonalLoop=1;jettySize=auto;html=1;exitX=0;exitY=0.75;exitDx=0;exitDy=0;entryX=1;entryY=0.75;entryDx=0;entryDy=0;" edge="1" parent="1" source="4cLJu39u_k5lHtrwkPme-9" target="4cLJu39u_k5lHtrwkPme-2">
          <mxGeometry relative="1" as="geometry" />
        </mxCell>
        <mxCell id="4cLJu39u_k5lHtrwkPme-9" value="&lt;div style=&quot;text-align: justify;&quot;&gt;&lt;span style=&quot;background-color: initial;&quot;&gt;Manage products Menu:&lt;/span&gt;&lt;/div&gt;&lt;div&gt;&lt;div style=&quot;text-align: justify;&quot;&gt;1- View products&lt;/div&gt;&lt;div style=&quot;text-align: justify;&quot;&gt;2- Create products&lt;/div&gt;&lt;div style=&quot;text-align: justify;&quot;&gt;3- Edit products&lt;/div&gt;&lt;div style=&quot;text-align: justify;&quot;&gt;4- Delete Products&lt;/div&gt;&lt;div style=&quot;text-align: justify;&quot;&gt;&lt;br&gt;&lt;/div&gt;&lt;div style=&quot;text-align: justify;&quot;&gt;0- Go back&lt;/div&gt;&lt;/div&gt;" style="rounded=1;whiteSpace=wrap;html=1;" vertex="1" parent="1">
          <mxGeometry x="627" y="320" width="200" height="130" as="geometry" />
        </mxCell>
        <mxCell id="4cLJu39u_k5lHtrwkPme-11" value="1" style="text;html=1;align=center;verticalAlign=middle;resizable=0;points=[];autosize=1;strokeColor=none;fillColor=none;" vertex="1" parent="1">
          <mxGeometry x="540" y="350" width="30" height="30" as="geometry" />
        </mxCell>
        <mxCell id="4cLJu39u_k5lHtrwkPme-13" value="0" style="text;html=1;align=center;verticalAlign=middle;resizable=0;points=[];autosize=1;strokeColor=none;fillColor=none;" vertex="1" parent="1">
          <mxGeometry x="540" y="410" width="30" height="30" as="geometry" />
        </mxCell>
        <mxCell id="4cLJu39u_k5lHtrwkPme-17" style="edgeStyle=orthogonalEdgeStyle;rounded=0;orthogonalLoop=1;jettySize=auto;html=1;exitX=0.25;exitY=0;exitDx=0;exitDy=0;entryX=0.25;entryY=1;entryDx=0;entryDy=0;" edge="1" parent="1" source="4cLJu39u_k5lHtrwkPme-14" target="4cLJu39u_k5lHtrwkPme-2">
          <mxGeometry relative="1" as="geometry" />
        </mxCell>
        <mxCell id="4cLJu39u_k5lHtrwkPme-14" value="&lt;div style=&quot;text-align: justify;&quot;&gt;&lt;span style=&quot;background-color: initial;&quot;&gt;Manage client Menu:&lt;/span&gt;&lt;/div&gt;&lt;div&gt;&lt;div style=&quot;text-align: justify;&quot;&gt;1- View clients&lt;/div&gt;&lt;div style=&quot;text-align: justify;&quot;&gt;2- Create clients&lt;/div&gt;&lt;div style=&quot;text-align: justify;&quot;&gt;3- Edit clients&lt;/div&gt;&lt;div style=&quot;text-align: justify;&quot;&gt;4- Delete clients&lt;/div&gt;&lt;div style=&quot;text-align: justify;&quot;&gt;5- View clients order&lt;/div&gt;&lt;div style=&quot;text-align: justify;&quot;&gt;&lt;br&gt;&lt;/div&gt;&lt;div style=&quot;text-align: justify;&quot;&gt;0- Go back&lt;/div&gt;&lt;/div&gt;" style="rounded=1;whiteSpace=wrap;html=1;" vertex="1" parent="1">
          <mxGeometry x="280" y="560" width="200" height="130" as="geometry" />
        </mxCell>
        <mxCell id="4cLJu39u_k5lHtrwkPme-16" value="2" style="text;html=1;align=center;verticalAlign=middle;resizable=0;points=[];autosize=1;strokeColor=none;fillColor=none;" vertex="1" parent="1">
          <mxGeometry x="410" y="488" width="30" height="30" as="geometry" />
        </mxCell>
        <mxCell id="4cLJu39u_k5lHtrwkPme-18" value="0" style="text;html=1;align=center;verticalAlign=middle;resizable=0;points=[];autosize=1;strokeColor=none;fillColor=none;" vertex="1" parent="1">
          <mxGeometry x="310" y="488" width="30" height="30" as="geometry" />
        </mxCell>
        <mxCell id="4cLJu39u_k5lHtrwkPme-20" value="2" style="text;html=1;align=center;verticalAlign=middle;resizable=0;points=[];autosize=1;strokeColor=none;fillColor=none;" vertex="1" parent="1">
          <mxGeometry x="320" y="170" width="30" height="30" as="geometry" />
        </mxCell>
      </root>
    </mxGraphModel>
  </diagram>
</mxfile>
